<svg xmlns="http://www.w3.org/2000/svg" id="SvgjsSvg302232" width="4096" height="1707.5131604401097" version="1.1" xmlns:xlink="http://www.w3.org/1999/xlink" xmlns:svgjs="http://svgjs.com/svgjs"><defs id="SvgjsDefs302233"></defs><g id="SvgjsG302234" transform="translate(328, 328) scale(34.4)" opacity="1"><defs id="SvgjsDefs76785"></defs><g id="SvgjsG76786" transform="scale(0.21645021645021645)" opacity="1"><g id="SvgjsG76787" class="text" transform="translate(309.1233038337952, 94.31502265488717) scale(1)" light-content="false" fill="#2ec5b6"><path d="M-141.3 -7.78L-141.3 -16.25L-127.46 -16.25L-127.46 -23.27L-141.3 -23.27L-141.3 -31.74L-126.26 -31.74L-125.12 -39.51L-150.72 -39.51L-150.72 0L-125.18 0L-125.18 -7.78Z M-118.54 0ZM-108.62 -31.86L-118.04 -30.6L-118.04 0L-108.62 0ZM-117.44 -36.8C-116.7 -36.08 -115.3 -35.72 -113.23 -35.72C-111.21 -35.72 -109.84 -36.08 -109.12 -36.8C-108.41 -37.51 -108.05 -38.88 -108.05 -40.91C-108.05 -42.97 -108.42 -44.37 -109.15 -45.11C-109.89 -45.85 -111.25 -46.22 -113.23 -46.22C-115.3 -46.22 -116.7 -45.85 -117.44 -45.11C-118.17 -44.37 -118.54 -42.97 -118.54 -40.91C-118.54 -38.88 -118.17 -37.51 -117.44 -36.8Z M-99.7 -31.61L-99.7 0L-90.28 0L-90.28 -21.88C-90.28 -22.93 -90 -23.66 -89.43 -24.06C-88.86 -24.46 -87.84 -24.66 -86.36 -24.66L-80.67 -24.66L-80.67 0L-71.25 0L-71.25 -26.11C-71.25 -28.13 -72.05 -29.68 -73.65 -30.76C-75.26 -31.83 -77.53 -32.37 -80.48 -32.37C-85.25 -32.37 -89.31 -31.06 -92.68 -28.45L-95.15 -31.61Z M-61.23 -30.13C-63.32 -28.5 -64.36 -25.96 -64.36 -22.51C-64.36 -20.02 -63.94 -18.13 -63.1 -16.85C-62.25 -15.56 -60.69 -14.56 -58.42 -13.85C-56.14 -13.13 -52.6 -12.48 -47.8 -11.89L-47.8 -6.83C-49.82 -6.36 -51.7 -6.13 -53.42 -6.13C-57.13 -6.13 -60.55 -6.79 -63.67 -8.09L-64.93 -1.01C-60.93 0.3 -56.71 0.95 -52.29 0.95C-47.14 0.95 -43.43 0.15 -41.16 -1.45C-38.88 -3.06 -37.74 -5.69 -37.74 -9.36C-37.74 -11.63 -38.22 -13.43 -39.17 -14.76C-40.11 -16.09 -41.76 -17.14 -44.1 -17.92C-46.44 -18.7 -49.84 -19.37 -54.31 -19.92L-54.31 -24.85C-52.54 -25.27 -50.45 -25.48 -48.05 -25.48C-45.31 -25.48 -42.78 -25.16 -40.46 -24.53L-39.32 -31.17C-42.99 -32.1 -47 -32.56 -51.34 -32.56C-55.85 -32.56 -59.15 -31.75 -61.23 -30.13Z M-20.04 -25.42L-15.05 -25.42L-15.05 -31.61L-20.04 -31.61L-20.04 -39.89L-29.46 -37.55L-29.46 -31.61L-33.26 -31.61L-33.26 -25.42L-29.46 -25.42L-29.46 -4.99C-29.46 -3.01 -28.95 -1.56 -27.91 -0.63C-26.88 0.3 -25.27 0.76 -23.08 0.76C-21.31 0.76 -19.07 0.48 -16.37 -0.06L-15.93 -6.45C-17.37 -6.49 -18.74 -6.62 -20.04 -6.83Z M16.82 -7.84C12.64 -6.79 8.96 -6.26 5.75 -6.26C3.31 -6.26 1.43 -6.43 0.13 -6.76L0.13 -12.08C5.31 -12.08 9.21 -12.36 11.82 -12.93C14.44 -13.5 16.26 -14.5 17.29 -15.93C18.32 -17.37 18.84 -19.49 18.84 -22.32C18.84 -24.97 18.43 -27.02 17.61 -28.45C16.79 -29.88 15.39 -30.89 13.43 -31.48C11.47 -32.08 8.68 -32.37 5.06 -32.37C1.39 -32.37 -1.53 -31.82 -3.7 -30.73C-5.87 -29.63 -7.45 -27.88 -8.44 -25.48C-9.43 -23.08 -9.93 -19.85 -9.93 -15.81C-9.93 -11.68 -9.45 -8.41 -8.5 -6.01C-7.56 -3.6 -6.04 -1.88 -3.95 -0.82C-1.87 0.23 0.97 0.76 4.55 0.76C9.69 0.76 14.18 0.08 18.02 -1.26ZM1.14 -24.63C1.81 -25.07 3.08 -25.29 4.93 -25.29L10.37 -25.29L10.37 -20.42C10.37 -19.2 10.02 -18.37 9.33 -17.92C8.63 -17.48 7.35 -17.26 5.5 -17.26L0.13 -17.26L0.13 -22.19C0.13 -23.37 0.46 -24.18 1.14 -24.63Z M26.24 0ZM36.16 -31.86L26.74 -30.6L26.74 0L36.16 0ZM27.34 -36.8C28.08 -36.08 29.48 -35.72 31.55 -35.72C33.57 -35.72 34.94 -36.08 35.66 -36.8C36.37 -37.51 36.73 -38.88 36.73 -40.91C36.73 -42.97 36.36 -44.37 35.63 -45.11C34.89 -45.85 33.53 -46.22 31.55 -46.22C29.48 -46.22 28.08 -45.85 27.34 -45.11C26.61 -44.37 26.24 -42.97 26.24 -40.91C26.24 -38.88 26.61 -37.51 27.34 -36.8Z M45.08 -31.61L45.08 0L54.5 0L54.5 -21.88C54.5 -22.93 54.78 -23.66 55.35 -24.06C55.92 -24.46 56.94 -24.66 58.42 -24.66L64.11 -24.66L64.11 0L73.53 0L73.53 -26.11C73.53 -28.13 72.73 -29.68 71.13 -30.76C69.52 -31.83 67.25 -32.37 64.3 -32.37C59.53 -32.37 55.47 -31.06 52.1 -28.45L49.63 -31.61Z M97.93 -39.51L82.06 -39.51L82.06 0L97.93 0C102.65 0 106.2 -0.55 108.59 -1.64C110.97 -2.74 112.63 -4.66 113.58 -7.4C114.53 -10.14 115 -14.25 115 -19.73C115 -25.2 114.53 -29.32 113.58 -32.09C112.63 -34.85 110.97 -36.77 108.59 -37.87C106.2 -38.97 102.65 -39.51 97.93 -39.51ZM91.48 -7.52L91.48 -31.99L99.96 -31.99C101.81 -31.99 103.1 -31.69 103.81 -31.07C104.53 -30.46 104.89 -29.34 104.89 -27.69L104.89 -11.82C104.89 -10.18 104.53 -9.05 103.81 -8.44C103.1 -7.83 101.81 -7.52 99.96 -7.52Z M151.23 -16.69C150.13 -18.29 148.66 -19.37 146.8 -19.92L146.8 -20.29C148.15 -21.14 149.17 -22.34 149.87 -23.9C150.57 -25.46 150.91 -27.29 150.91 -29.4C150.91 -32.9 149.96 -35.46 148.07 -37.08C146.17 -38.7 143.16 -39.51 139.03 -39.51L122.46 -39.51L122.46 0L141.11 0C144.91 0 147.82 -0.96 149.84 -2.88C151.86 -4.79 152.87 -7.54 152.87 -11.13C152.87 -13.23 152.32 -15.09 151.23 -16.69ZM140.73 -31.67C141.28 -31 141.56 -29.76 141.56 -27.94C141.56 -26.17 141.27 -24.95 140.7 -24.28C140.13 -23.6 139.11 -23.27 137.64 -23.27L131.95 -23.27L131.95 -32.69L137.7 -32.69C139.17 -32.69 140.19 -32.35 140.73 -31.67ZM142.41 -8C141.8 -7.22 140.76 -6.83 139.28 -6.83L131.95 -6.83L131.95 -16.69L139.34 -16.69C140.82 -16.69 141.85 -16.33 142.44 -15.62C143.03 -14.9 143.33 -13.68 143.33 -11.95C143.33 -10.09 143.02 -8.78 142.41 -8Z"></path></g><g id="SvgjsG76788" class="R4u0xVvJv" transform="translate(-0.0011752565060763151, -2.7256125465150944) scale(1.4394633888921857)" light-content="false" non-strokable="false" fill="#2ec5b6"><path d="M33.561 2.162c8.041-.817 16.216.265 23.88 2.775 5.161 1.735 10.153 4.009 14.764 6.914 1.793 1.105 3.512 2.326 5.2 3.585.57-.477 1.27-.839 2.029-.827 1.339-.061 2.622.953 2.886 2.264.193.8-.018 1.63-.428 2.325 3.847 3.495 7.271 7.463 10.122 11.811 2.956 4.523 5.274 9.484 6.64 14.721 1.445 5.672 1.848 11.675.614 17.427-.892 4.256-2.643 8.338-5.167 11.885-2.032 2.879-4.55 5.408-7.391 7.492-5.611 4.148-12.399 6.527-19.294 7.369a3.647 3.647 0 0 0-.746.135c-.46 2.746-1.95 5.299-4.073 7.092a12.054 12.054 0 0 1-6.526 2.799c-2.562.279-5.216-.268-7.434-1.584-3.668-2.113-6.064-6.262-5.977-10.502-.037-.217.106-.592-.193-.656-9.672-3.152-18.593-8.568-25.887-15.656-4.064-3.963-7.617-8.467-10.405-13.414C2.16 51.008-.303 42.869.031 34.657c.206-5.491 1.743-10.952 4.603-15.656 1.368-2.185 2.917-4.27 4.757-6.083.165-.125.03-.33-.003-.483a4.909 4.909 0 0 1 .688-4.646c.503-.633 1.136-1.176 1.884-1.498 1.632-.759 3.679-.507 5.074.633.116.146.29.113.426.018 4.966-2.678 10.504-4.206 16.101-4.78zm1.341 1.536c-5.725.614-11.378 2.309-16.326 5.289.182.688.356 1.395.285 2.114-.115 1.894-1.436 3.641-3.232 4.255-1.387.514-2.961.306-4.233-.418a29.067 29.067 0 0 0-3.523 4.858c-2.565 4.393-3.906 9.455-4.04 14.53-.147 5.301.958 10.593 2.909 15.51 2.418 6.077 6.087 11.62 10.525 16.411 7.17 7.707 16.308 13.582 26.304 16.889.171-.223.266-.49.392-.738 1.157-2.281 3.053-4.186 5.348-5.322a11.929 11.929 0 0 1 5.901-1.279c3.023.08 5.987 1.383 8.113 3.531a12.017 12.017 0 0 1 3.373 6.52c1.062-.018 2.11-.252 3.156-.42 7.407-1.33 14.584-4.732 19.761-10.277a29.336 29.336 0 0 0 6.716-11.562c1.736-5.609 1.737-11.659.469-17.363-1.219-5.523-3.588-10.754-6.697-15.465-2.603-3.923-5.678-7.55-9.172-10.707-1.07.593-2.518.47-3.412-.39-.786-.693-1.115-1.834-.856-2.845.011-.144.126-.352-.049-.441a64.206 64.206 0 0 0-19.045-10.07c-7.273-2.388-15.038-3.425-22.667-2.61z"></path><path d="M33.041 15.598c4.092-2.309 8.841-3.263 13.509-3.24 6.08.014 12.062 1.722 17.482 4.413 4.758 2.419 9.094 5.695 12.633 9.696 3.391 3.83 6.09 8.354 7.397 13.326 1.247 4.756 1.141 9.989-.973 14.491.831 1.23 1.046 2.865.468 4.244-.613 1.555-2.185 2.668-3.855 2.725-.646.045-1.283-.104-1.894-.301a22.812 22.812 0 0 1-6.244 3.465c-6.267 2.266-13.229 2.07-19.588.279-5.12-1.373-9.949-3.766-14.202-6.92-4.146-3.086-7.768-6.921-10.42-11.368-2.087-3.501-3.573-7.404-4.015-11.471-.408-3.67.076-7.491 1.7-10.829 1.635-3.621 4.554-6.581 8.002-8.51zm11.867-1.411c-4.534.385-9.079 1.916-12.57 4.902-3.002 2.529-5.038 6.154-5.684 10.021-.675 3.824-.051 7.789 1.335 11.387 1.215 3.146 3.002 6.057 5.152 8.649 3.136 3.771 7.028 6.898 11.34 9.232 5.077 2.725 10.764 4.418 16.544 4.531 5.075.09 10.326-1.121 14.461-4.168-.439-1.002-.553-2.154-.211-3.201a4.405 4.405 0 0 1 2.795-2.862c.833-.295 1.74-.277 2.596-.086l.104-.055c1.699-3.417 2.122-7.378 1.516-11.123-.79-4.99-3.221-9.604-6.412-13.476-3.511-4.248-7.977-7.683-12.928-10.095-5.574-2.699-11.833-4.18-18.038-3.656z"></path><path d="M49.689 23.08c2.942-.435 5.983-.026 8.751 1.041 4.397 1.566 8.292 4.642 10.684 8.668 1.365 2.334 2.202 5.09 1.837 7.811-.208 2.333-1.459 4.532-3.297 5.97-1.591 1.265-3.556 1.998-5.554 2.29-2.67.372-5.419.053-7.962-.826-2.308-.72-4.47-1.881-6.384-3.355a16.076 16.076 0 0 0-.26-.149c-1.239.548-2.667.695-3.972.298-1.757-.502-3.201-1.946-3.72-3.696-.593-1.936-.033-4.175 1.448-5.565-.343-1.435-.526-2.926-.309-4.395.28-1.818 1.021-3.604 2.324-4.929 1.668-1.789 4.027-2.799 6.414-3.163zm.14 2.154c-1.949.505-3.799 1.62-4.92 3.325-1.098 1.608-1.418 3.645-1.153 5.55.436.004.865-.111 1.304-.1a5.505 5.505 0 0 1 3.508 1.208c1.326 1.054 2.13 2.751 2.046 4.45.018 1.169-.443 2.289-1.103 3.236 2.356 1.794 5.178 2.996 8.117 3.393 2.534.334 5.243 0 7.444-1.369 1.736-1.06 3.028-2.849 3.398-4.86.421-2.13-.069-4.35-1.034-6.266-1.938-3.776-5.476-6.604-9.442-8.021-2.598-.916-5.473-1.247-8.165-.546z"></path></g></g></g></svg>